<?xml version="1.0" encoding="UTF-8" standalone="no"?><!DOCTYPE svg PUBLIC "-//W3C//DTD SVG 1.1//EN" "http://www.w3.org/Graphics/SVG/1.1/DTD/svg11.dtd"><svg width="100%" height="100%" viewBox="0 0 596 171" version="1.1" xmlns="http://www.w3.org/2000/svg" xmlns:xlink="http://www.w3.org/1999/xlink" xml:space="preserve" xmlns:serif="http://www.serif.com/" style="fill-rule:evenodd;clip-rule:evenodd;stroke-linejoin:round;stroke-miterlimit:2;"><path d="M171.956,27.47c-0.514,-1.175 -5.826,-0.083 -7.585,-0.101c-4.067,-0.041 -10.785,-0.724 -13.424,-1.212c-0.582,-0.108 -1.493,-0.184 -2.548,-0.239c1.072,-0.738 2.028,-1.317 2.755,-1.594c2.951,-1.129 9.964,-6.49 11.028,-8.112c0.863,-1.314 0.855,-2.135 0.239,-2.906c-0.734,-0.917 -5.218,1.255 -6.792,1.641c-3.637,0.89 -8.364,1.082 -10.716,1.842c-0.978,0.317 -3.007,0.749 -4.602,0.317c-2.428,-0.659 -5.935,-2.408 -5.935,-2.408c0,-0 -2.191,-0.954 -5.356,-2.18c-10.778,-4.549 -22.632,-7.076 -35.085,-7.076c-0.147,-0 -0.294,0.007 -0.44,0.008l-0.132,-0.005c-0.244,0 -0.487,0.017 -0.732,0.019c-0.851,0.012 -1.7,0.032 -2.545,0.067c-0.64,0.023 -1.27,0.081 -1.905,0.117c-46.879,2.947 -83.986,41.574 -83.986,88.826c0,26.529 11.705,50.335 30.259,66.645c-0.087,-2.693 -0.138,-5.553 -0.138,-8.661c0,-7.159 1.696,-18.329 2.926,-24.379c1.72,-8.464 5.913,-17.589 12.122,-23.846c3.438,-3.467 9.691,-6.32 11.714,-11.072c1.131,-2.657 2.651,-6.337 2.651,-9.728c0,-2.172 -3.561,-4.769 -5.921,-6.5c-1.924,-1.411 -3.616,-3.098 -4.947,-5.04c-1.448,-2.111 -3.09,-4.574 -3.679,-7.06c-0.494,-2.077 -0.795,-4.234 -1.027,-6.383c-0.237,-2.183 -0.195,-4.628 0.291,-6.756c0.426,-1.866 0.728,-3.83 1.431,-5.628c0.723,-1.849 1.466,-7.278 9.582,-13.069c3.432,-2.448 8.543,-4.018 12.713,-4.018c6.263,0 8.022,0.485 12.474,1.665c3.578,0.948 7.537,2.469 10.768,4.451c1.83,1.122 2.61,1.89 3.964,3.974c0.632,0.972 1.325,2.63 1.227,3.461c-0.093,0.79 -0.223,1.37 -0.525,2.124c-0.148,0.369 0.058,0.973 0.172,1.381c0.113,0.405 0.245,0.797 0.4,1.191c0.347,0.87 0.611,1.698 0.951,2.654c0.327,0.92 0.503,1.846 0.6,2.815c0.157,1.581 -0.38,3.601 0.01,5.153c0.177,0.703 0.68,1.112 1.159,1.665c0.465,0.535 0.833,0.966 1.28,1.473c1.055,1.199 2.054,2.266 3.043,3.509c0.814,1.026 1.537,2.187 0.689,3.523c-0.714,1.121 -2.206,1.248 -3.161,2.015c-0.484,0.388 -0.534,1.038 -0.538,1.614c-0.006,0.617 -0.011,1.184 0.295,1.735c0.359,0.651 0.482,1.069 0.089,1.719c-0.334,0.551 -0.669,0.793 -1.208,1.142c-0.378,0.243 0.306,0.561 0.471,0.759c0.308,0.372 0.508,0.854 0.546,1.333c0.05,0.586 -0.186,0.991 -0.68,1.29c-0.552,0.335 -1.099,0.711 -1.495,1.229c-0.995,1.3 -0.629,2.551 -0.49,3.931c0.129,1.286 -0.539,2.893 -1.471,3.788c-0.854,0.819 -1.349,1.206 -2.487,1.428c-1.276,0.248 -2.679,0.342 -3.966,0.11c-1.182,-0.208 -2.826,-0.876 -3.825,0.155c-0.755,0.778 -0.754,2.05 -1.051,3.031c-0.22,0.728 -0.482,1.421 -0.637,2.169c-0.154,0.747 -0.281,1.502 -0.467,2.241c0.319,0.469 0.692,0.839 1.214,1.241c-0,-0 13.89,9.383 21.298,20.064c0,-0 6.039,7.069 7.639,8.475c1.597,1.406 1.483,13.826 10.612,15.841c-0,-0 8.653,5.137 9.88,1.34c0,-0 8.596,4.818 16.744,-7.513c0,0 11.475,-6.292 7.147,-15.953c-0,-0 -13.589,-47.895 -11.901,-55.659c1.043,-4.796 -1.168,-17.098 -3.162,-25.986c3.633,-1.596 7.321,-3.207 9.29,-3.437c3.411,-0.398 12.262,-4.192 13.831,-5.627c1.27,-1.163 1.49,-2.037 1.055,-3.023" style="fill:#163964;fill-rule:nonzero;"/><path d="M193.179,78.517l0,29.373c0,3.663 -0.348,6.34 -4.872,6.763l-1.044,0.07l-0,2.127l18.785,0l0,-2.127l-1.044,-0.07c-4.524,-0.423 -4.872,-3.1 -4.872,-6.763l-0,-29.373c-0,-4.015 0.208,-7.115 5.081,-7.537l0.835,-0l0,-2.106l-18.785,0l-0,2.106l0.835,-0c4.872,0.422 5.081,3.522 5.081,7.537Z" style="fill:#191714;fill-rule:nonzero;"/><path d="M228.323,74.178l0.14,0l25.902,42.679l5.979,0l-0,-38.523c-0,-1.69 0.069,-3.733 0.696,-5.001c0.974,-1.902 2.993,-2.113 4.872,-2.254l0.766,-0.071l-0,-2.127l-17.048,-0l0,2.127l1.393,0.071c5.083,0.282 5.431,3.029 5.431,6.903l0,29.092l-0.139,-0l-22.7,-38.193l-15.376,-0l-0,2.127l1.044,0.071c4.803,0.352 5.151,3.099 5.151,6.832l-0,29.515c-0,1.69 -0.07,3.733 -0.696,5.001c-0.975,1.902 -2.924,2.184 -4.803,2.325l-0.696,-0l-0,2.105l16.908,0l0,-2.105l-1.393,-0.071c-5.083,-0.282 -5.431,-3.099 -5.431,-7.044l0,-33.459Z" style="fill:#191714;fill-rule:nonzero;"/><path d="M312.141,68.874l-2.506,0l-0.836,2.529c-3.621,-2.672 -8.426,-3.727 -12.812,-3.727c-3.969,0 -7.939,0.773 -11.208,3.163c-3.129,2.396 -5.075,5.991 -5.075,9.938c-0,3.666 2.155,7.19 5.214,9.093c2.643,1.762 6.821,2.96 9.954,3.806l7.73,1.903c4.874,1.269 10.236,2.326 10.236,8.529c-0,6.908 -6.615,10.432 -12.743,10.432c-8.983,0 -16.359,-6.907 -19.974,-14.661l-2.575,0.846l4.521,16.132l2.573,0l1.32,-3.585c4.038,3.377 9.678,4.783 14.901,4.783c9.122,0 18.859,-5.629 18.859,-15.85c0,-9.656 -7.927,-11.912 -15.517,-13.745l-7.102,-1.691c-4.248,-1.058 -10.515,-2.467 -10.515,-8.106c0,-5.146 5.78,-7.472 10.167,-7.472c7.868,-0 13.439,4.934 17.405,11.278l2.225,-0.846l-4.242,-12.749Z" style="fill:#191714;fill-rule:nonzero;"/><path d="M370.953,68.874l-40.435,0l-3.898,12.397l2.297,0.846c3.133,-6.133 8.353,-10.503 15.454,-10.503c2.854,-0 2.923,1.198 2.923,3.595l0,31.507c0,1.833 -0.069,4.229 -0.766,5.71c-0.974,2.044 -3.202,2.114 -5.151,2.255l-1.322,0.07l-0,2.106l21.57,0l-0,-2.176l-1.462,0c-2.019,-0.141 -4.316,-0.211 -5.29,-2.467c-0.557,-1.41 -0.627,-3.595 -0.627,-5.357l0,-32.142c0,-1.973 0.14,-3.171 2.715,-3.171c6.822,-0 12.391,4.652 15.384,10.573l2.506,-0.846l-3.898,-12.397Z" style="fill:#191714;fill-rule:nonzero;"/><path d="M388.085,78.517l0,29.373c0,3.663 -0.348,6.34 -4.873,6.763l-1.044,0.07l0,2.127l18.786,0l0,-2.127l-1.044,-0.07c-4.525,-0.423 -4.873,-3.1 -4.873,-6.763l0,-29.373c0,-4.015 0.209,-7.115 5.082,-7.537l0.835,-0l0,-2.106l-18.786,0l0,2.106l0.836,-0c4.872,0.422 5.081,3.522 5.081,7.537Z" style="fill:#191714;fill-rule:nonzero;"/><path d="M453.091,68.874l-40.434,0l-3.898,12.397l2.297,0.846c3.133,-6.133 8.353,-10.503 15.453,-10.503c2.854,-0 2.924,1.198 2.924,3.595l0,31.507c0,1.833 -0.07,4.229 -0.766,5.71c-0.974,2.044 -3.202,2.114 -5.151,2.255l-1.322,0.07l-0,2.106l21.57,0l-0,-2.176l-1.462,0c-2.019,-0.141 -4.316,-0.211 -5.29,-2.467c-0.557,-1.41 -0.627,-3.595 -0.627,-5.357l0,-32.142c0,-1.973 0.139,-3.171 2.715,-3.171c6.822,-0 12.39,4.652 15.384,10.573l2.506,-0.846l-3.899,-12.397Z" style="fill:#191714;fill-rule:nonzero;"/><path d="M497.648,68.881l-0,2.127l1.393,0.071c5.152,0.281 5.5,3.099 5.5,7.044l0,20.639c0,3.733 -0.139,8.171 -2.089,11.059c-2.437,3.663 -7.52,4.719 -11.558,4.719c-4.387,0 -9.401,-0.915 -11.977,-4.86c-1.462,-2.254 -1.741,-5.565 -1.741,-8.664c0,-1.409 0.07,-2.818 0.07,-4.015l-0,-18.667c-0,-1.761 0.069,-3.804 0.696,-5.001c1.045,-2.113 3.273,-2.184 5.223,-2.254l0.974,-0.071l0,-2.127l-20.249,-0l-0,2.127l1.113,0.071c5.012,0.352 5.291,3.17 5.291,7.044l-0,23.668c-0,5.776 0.695,9.579 5.839,13.03c4.107,2.742 8.981,3.234 13.786,3.234c4.665,0 9.887,-0.633 13.648,-3.585c4.447,-3.593 4.864,-7.396 4.864,-12.82l-0,-22.612c-0,-1.831 0.069,-4.296 0.765,-5.705c0.975,-1.902 2.924,-2.184 4.804,-2.325l0.626,-0l-0,-2.127l-16.978,-0Z" style="fill:#191714;fill-rule:nonzero;"/><path d="M565.858,68.874l-40.434,0l-3.898,12.397l2.297,0.846c3.133,-6.133 8.353,-10.503 15.453,-10.503c2.854,-0 2.924,1.198 2.924,3.595l-0,31.507c-0,1.833 -0.07,4.229 -0.766,5.71c-0.974,2.044 -3.202,2.114 -5.151,2.255l-1.322,0.07l-0,2.106l21.57,0l-0,-2.176l-1.462,0c-2.019,-0.141 -4.316,-0.211 -5.29,-2.467c-0.557,-1.41 -0.627,-3.595 -0.627,-5.357l0,-32.142c0,-1.973 0.139,-3.171 2.715,-3.171c6.822,-0 12.39,4.652 15.384,10.573l2.505,-0.846l-3.898,-12.397Z" style="fill:#191714;fill-rule:nonzero;"/><path d="M195.251,36.176l4.669,0c2.063,0 4.499,-0.239 6.189,-1.536c1.588,-1.199 2.466,-3.117 2.466,-5.104c-0,-2.192 -1.081,-4.11 -2.939,-5.24c-1.724,-1.023 -3.72,-1.228 -5.683,-1.228l-11.056,-0l0,1.037l0.474,0.034c2.333,0.171 2.502,1.505 2.502,3.318l0,13.952c0,0.923 -0.033,2.086 -0.372,2.804c-0.439,0.89 -1.386,1.026 -2.299,1.095l-0.305,0.034l0,1.034l9.872,-0l0,-1.034l-0.676,-0.034c-0.981,-0.069 -2.064,-0.137 -2.538,-1.197c-0.27,-0.616 -0.304,-1.505 -0.304,-2.292l-0,-5.643Zm-0,-1.262l-0,-8.22c-0,-0.583 0.034,-1.336 0.473,-1.644c0.711,-0.548 2.91,-0.651 3.79,-0.651c1.387,-0 2.977,0.274 4.059,1.233c1.083,0.993 1.591,2.466 1.591,3.939c-0,1.507 -0.305,2.774 -1.354,3.904c-1.218,1.336 -2.706,1.439 -4.398,1.439l-4.161,-0Z" style="fill:#191714;fill-rule:nonzero;"/><path d="M232.213,23.068l-18.629,-0l0,1.037l0.507,0.034c2.368,0.171 2.537,1.539 2.537,3.317l-0,14.294c-0,0.856 -0.034,1.848 -0.372,2.463c-0.44,0.924 -1.421,1.061 -2.334,1.095l-0.338,0.034l0,1.034l9.737,-0l0,-1.034l-0.676,-0.034c-2.471,-0.137 -2.64,-1.437 -2.64,-3.318l0,-7.32l1.997,-0c3.316,-0 4.263,1.026 4.602,4.378l1.01,0l0,-10.121l-1.01,-0c-0.339,3.591 -1.117,4.241 -4.602,4.241l-1.997,-0l0,-5.618c0,-0.822 0.068,-1.815 0.542,-2.329c0.575,-0.617 2.538,-0.719 3.417,-0.719c4.124,-0 7.099,1.644 9.602,4.932l1.082,-0.548l-2.435,-5.818Z" style="fill:#191714;fill-rule:nonzero;"/><path d="M258.32,23.068l-19.373,-0l0,1.037l0.507,0.034c2.368,0.171 2.537,1.539 2.537,3.317l-0,14.329c-0,0.855 -0.034,1.847 -0.338,2.428c-0.474,0.958 -1.455,0.992 -2.368,1.095l-0.338,0.034l0,1.037l19.711,-0l3.078,-7.291l-1.082,-0.479c-3.044,4.144 -6.121,6.302 -11.327,6.302c-1.083,-0 -2.741,-0.069 -3.451,-1.028c-0.44,-0.582 -0.508,-1.712 -0.508,-2.397l0,-6.816l2.2,-0c1.489,-0 2.774,0.068 3.654,1.438c0.609,0.891 0.779,1.919 0.88,2.98l1.146,0l-0,-10.236l-1.146,-0c-0.406,3.391 -1.049,4.213 -4.467,4.213l-2.267,0l0,-5.275c0,-0.993 0.034,-1.987 0.88,-2.638c0.778,-0.616 2.369,-0.65 3.316,-0.65c4.461,-0 7.268,1.644 10.008,5.138l1.082,-0.446l-2.334,-6.126Z" style="fill:#191714;fill-rule:nonzero;"/><path d="M282.334,35.047c3.247,-0.307 6.219,-2.428 6.219,-5.99c0,-4.795 -4.189,-5.989 -8.08,-5.989l-13.457,-0l-0,1.037l0.642,0.034c2.435,0.137 2.604,1.436 2.604,3.318l0,14.337c0,0.822 -0.034,1.815 -0.338,2.432c-0.507,0.959 -1.522,1.027 -2.469,1.096l-0.439,0.034l-0,1.023l9.973,-0l-0,-1.023l-0.711,0c-2.469,-0.171 -2.638,-1.576 -2.638,-3.494l-0,-6.507l4.736,-0l7.542,11.024l5.645,-0l-0,-1.023c-1.793,-0.308 -2.773,-1.096 -3.821,-2.569l-5.408,-7.74Zm-8.694,-1.126l-0,-7.022c-0,-0.856 0.033,-1.438 0.845,-1.918c0.88,-0.514 3.011,-0.616 3.992,-0.616c3.146,-0 6.529,0.787 6.529,4.658c0,1.576 -0.642,3.048 -1.928,3.939c-1.319,0.925 -2.842,0.959 -4.364,0.959l-5.074,-0Z" style="fill:#191714;fill-rule:nonzero;"/><path d="M295.084,46.379l10.007,-0c3.518,-0 7.104,-0.068 10.08,-2.29c2.838,-2.123 4.291,-5.684 4.291,-9.212c0,-3.561 -1.588,-7.396 -4.46,-9.519c-2.841,-2.017 -6.562,-2.29 -9.911,-2.29l-10.007,-0l0,1.037l0.473,0.034c2.368,0.205 2.537,1.539 2.537,3.351l-0,14.261c-0,0.855 -0.034,1.847 -0.372,2.463c-0.507,0.889 -1.421,0.991 -2.334,1.094l-0.304,0.034l0,1.037Zm6.387,-18.341c0,-0.694 0.102,-2.167 0.474,-2.715c0.575,-0.822 2.808,-0.924 3.721,-0.924c2.503,-0 5.345,0.685 7.138,2.5c1.962,1.951 2.604,4.965 2.604,7.67c0,6.404 -3.281,10.376 -9.708,10.376c-0.846,0 -2.876,-0.103 -3.552,-0.685c-0.643,-0.582 -0.677,-1.917 -0.677,-2.705l0,-13.517Z" style="fill:#191714;fill-rule:nonzero;"/><path d="M345.231,23.068l-19.373,-0l-0,1.037l0.507,0.034c2.367,0.171 2.536,1.539 2.536,3.317l0,14.329c0,0.855 -0.033,1.847 -0.338,2.428c-0.473,0.958 -1.454,0.992 -2.367,1.095l-0.338,0.034l-0,1.037l19.711,-0l3.078,-7.291l-1.083,-0.479c-3.043,4.144 -6.121,6.302 -11.326,6.302c-1.083,-0 -2.741,-0.069 -3.452,-1.028c-0.439,-0.582 -0.507,-1.712 -0.507,-2.397l-0,-6.816l2.199,-0c1.489,-0 2.775,0.068 3.655,1.438c0.609,0.891 0.778,1.919 0.88,2.98l1.145,0l0,-10.236l-1.145,-0c-0.406,3.391 -1.049,4.213 -4.467,4.213l-2.267,0l-0,-5.275c-0,-0.993 0.034,-1.987 0.88,-2.638c0.778,-0.616 2.368,-0.65 3.316,-0.65c4.461,-0 7.268,1.644 10.007,5.138l1.082,-0.446l-2.333,-6.126Z" style="fill:#191714;fill-rule:nonzero;"/><path d="M374.28,23.374l-1.082,-0l-0.744,1.573c-1.86,-1.71 -4.261,-2.461 -6.73,-2.461c-6.662,-0 -11.358,5.748 -11.358,12.289c-0,7.054 4.899,12.186 11.899,12.186c4.464,-0 8.117,-2.084 10.349,-6.022l-1.455,-0.822c-1.691,2.979 -4.903,5.136 -8.353,5.136c-2.536,0 -5.005,-1.164 -6.492,-3.219c-1.421,-1.951 -1.894,-4.725 -1.894,-7.088c-0,-2.534 0.406,-5.239 1.724,-7.397c1.353,-2.157 3.382,-3.356 5.986,-3.356c2.198,0 4.126,0.754 5.614,2.363c1.15,1.267 2.164,3.288 2.942,4.794l0.135,0.274l1.082,0l-1.623,-8.25Z" style="fill:#191714;fill-rule:nonzero;"/><path d="M395.283,22.486c-6.867,-0 -12.172,5.303 -12.172,12.289c-0,6.848 5.271,12.186 12.037,12.186c6.765,-0 12.104,-5.132 12.104,-12.049c0,-7.089 -4.9,-12.426 -11.969,-12.426Zm-0.135,1.707l0.236,0c5.277,0 7.814,4.863 7.814,10.856c0,5.034 -2.334,10.204 -7.983,10.204c-5.683,0 -8.05,-5.307 -8.05,-10.341c-0,-6.472 2.773,-10.581 7.983,-10.719Z" style="fill:#191714;fill-rule:nonzero;"/><path d="M425.549,23.068l-3.144,-0l-5.647,14.683c-0.575,1.542 -1.42,3.837 -2.198,5.241c-0.846,1.508 -1.421,1.919 -3.043,2.296l-0.372,0.068l0,1.023l9.059,-0l0,-1.023c-1.623,-0.171 -2.976,-0.514 -2.976,-2.227c0,-0.788 0.507,-2.124 0.778,-2.843l0.947,-2.569l8.691,-0l1.522,4.042c0.203,0.514 0.507,1.302 0.507,1.884c-0,1.336 -1.522,1.576 -2.638,1.713l0,1.023l9.503,-0l-0,-1.023c-2.672,-0.137 -3.179,-2.192 -4.024,-4.316l-6.965,-17.972Zm-6.123,13.113l3.754,-10.173l3.855,10.173l-7.609,-0Z" style="fill:#191714;fill-rule:nonzero;"/><path d="M460.514,23.374l-1.082,-0l-0.744,1.573c-1.86,-1.71 -4.261,-2.461 -6.729,-2.461c-6.662,-0 -11.359,5.748 -11.359,12.289c0,7.054 4.9,12.186 11.9,12.186c4.464,-0 8.116,-2.084 10.348,-6.022l-1.454,-0.822c-1.691,2.979 -4.904,5.136 -8.353,5.136c-2.536,0 -5.005,-1.164 -6.493,-3.219c-1.42,-1.951 -1.894,-4.725 -1.894,-7.088c0,-2.534 0.406,-5.239 1.725,-7.397c1.352,-2.157 3.382,-3.356 5.985,-3.356c2.199,0 4.126,0.754 5.614,2.363c1.15,1.267 2.164,3.288 2.942,4.794l0.136,0.274l1.082,0l-1.624,-8.25Z" style="fill:#191714;fill-rule:nonzero;"/><path d="M471.915,27.448l0,14.346c0,0.822 -0.034,1.815 -0.338,2.432c-0.473,0.925 -1.42,1.027 -2.333,1.13l-0.339,0l0,1.023l9.534,-0l-0,-1.023l-0.575,-0.034c-2.436,-0.171 -2.571,-1.541 -2.571,-3.425l-0,-7.33l12.144,0l0,6.884c0,0.891 -0.033,2.055 -0.372,2.775c-0.473,0.925 -1.421,1.062 -2.334,1.13l-0.338,0l-0,1.023l9.465,-0l0,-1.023l-0.507,-0.034c-2.367,-0.171 -2.536,-1.541 -2.536,-3.323l-0,-14.312c-0,-0.822 0.034,-1.849 0.372,-2.466c0.439,-0.925 1.42,-1.028 2.333,-1.13l0.338,-0l0,-1.023l-9.465,-0l-0,1.023l0.507,0.034c2.368,0.171 2.537,1.541 2.537,3.357l0,5.652l-12.144,-0l-0,-5.104c-0,-0.925 0.033,-2.09 0.372,-2.809c0.473,-0.959 1.454,-1.062 2.402,-1.13l0.372,-0l-0,-1.023l-9.534,-0l0,1.023l0.508,0.034c2.333,0.171 2.502,1.507 2.502,3.323Z" style="fill:#191714;fill-rule:nonzero;"/><path d="M502.554,27.752l-0,14.271c-0,1.779 -0.169,3.08 -2.368,3.285l-0.507,0.034l0,1.034l9.127,-0l-0,-1.034l-0.508,-0.034c-2.198,-0.205 -2.367,-1.506 -2.367,-3.285l0,-14.271c0,-1.95 0.102,-3.456 2.469,-3.661l0.406,-0l-0,-1.023l-9.127,-0l0,1.023l0.406,-0c2.367,0.205 2.469,1.711 2.469,3.661Z" style="fill:#191714;fill-rule:nonzero;"/><path d="M519.627,25.645l0.068,-0l12.584,20.734l2.904,-0l0,-18.715c0,-0.822 0.034,-1.814 0.338,-2.43c0.474,-0.924 1.455,-1.027 2.368,-1.095l0.372,-0.034l-0,-1.034l-8.282,0l-0,1.034l0.676,0.034c2.47,0.137 2.639,1.471 2.639,3.354l-0,14.133l-0.068,-0l-11.028,-18.555l-7.47,0l-0,1.034l0.507,0.034c2.334,0.171 2.503,1.506 2.503,3.319l-0,14.339c-0,0.821 -0.034,1.814 -0.338,2.43c-0.474,0.924 -1.421,1.061 -2.334,1.129l-0.338,0l-0,1.023l8.214,-0l0,-1.023l-0.676,-0.034c-2.47,-0.137 -2.639,-1.506 -2.639,-3.422l0,-16.255Z" style="fill:#191714;fill-rule:nonzero;"/><path d="M563.661,23.068l-1.048,-0l-0.642,1.639c-1.827,-1.401 -4.364,-2.221 -6.664,-2.221c-3.112,-0 -6.258,1.537 -8.32,3.865c-2.027,2.329 -2.906,5.24 -2.906,8.323c0,6.846 4.799,12.287 11.733,12.287c2.808,-0 5.446,-1.059 7.577,-2.941l1.046,2.359l1.622,-0l-0,-6.505c-0,-0.822 0.033,-1.815 0.338,-2.431c0.439,-0.856 1.386,-1.027 2.232,-1.096l0.27,-0.034l0,-1.023l-9.262,0l-0,1.023c2.164,0.24 3.281,0.925 3.281,3.287c-0,3.804 -3.451,5.653 -6.799,5.653c-2.605,0 -4.905,-1.438 -6.292,-3.665c-1.252,-2.055 -1.692,-4.521 -1.692,-6.914c0,-4.59 1.962,-10.481 7.408,-10.481c4.06,0 6.901,3.357 8.894,6.542l1.284,-0.377l-2.06,-7.29Z" style="fill:#191714;fill-rule:nonzero;"/><path d="M575.683,20.997c4.024,0 7.314,-3.396 7.314,-7.596c-0,-4.179 -3.29,-7.573 -7.314,-7.573c-4.065,0 -7.355,3.394 -7.355,7.573c0,4.2 3.29,7.596 7.355,7.596Zm0,-0.91c-3.562,0 -6.456,-2.999 -6.456,-6.686c-0,-3.671 2.894,-6.663 6.456,-6.663c3.542,-0 6.415,2.992 6.415,6.663c0,3.687 -2.873,6.686 -6.415,6.686Zm-1.321,-6.601l0.713,-0c0.336,-0 0.692,0.021 0.944,0.296c0.356,0.36 0.65,1.229 0.839,1.695c0.168,0.423 0.482,1.292 0.838,1.59c0.272,0.236 0.648,0.257 0.983,0.257l0.818,0l0,-0.343c-0.356,-0 -0.587,-0.064 -0.776,-0.254c-0.23,-0.297 -0.502,-0.933 -0.648,-1.271c-0.356,-0.742 -0.858,-2.055 -1.76,-2.16l-0,-0.042c1.132,-0.127 2.241,-0.827 2.241,-2.165c-0,-0.658 -0.293,-1.295 -0.837,-1.656c-0.628,-0.401 -1.551,-0.422 -2.306,-0.422l-3.164,0l-0,0.337l0.335,0.021c0.504,0.043 0.63,0.064 0.651,0.616l-0,6.339c-0,0.572 -0.147,0.593 -0.651,0.636l-0.314,0.021l-0,0.343l3.08,0l-0,-0.343l-0.42,-0.021c-0.524,-0.043 -0.566,-0.233 -0.566,-0.763l-0,-2.711Zm-0,-0.401l-0,-2.973c-0,-0.403 0.042,-0.722 0.566,-0.722l0.566,0c1.154,0 1.909,0.574 1.909,1.805c0,1.572 -1.216,1.89 -2.496,1.89l-0.545,0Z" style="fill:#191714;fill-rule:nonzero;"/><path d="M341.679,141.191l1.237,-0c3.275,-0 6.042,-1.51 6.042,-5.451c0,-3.421 -1.646,-5.401 -6.958,-5.401l-2.47,0l0,18.683l2.149,0l-0,-7.831Zm-0,-8.773l0.573,-0c2.13,-0 4.695,0.347 4.695,3.273c-0,2.975 -2.382,3.421 -4.581,3.421l-0.687,0l-0,-6.694Z" style="fill:#163964;fill-rule:nonzero;"/><path d="M352.827,137.427l-2.058,0l0,11.595l2.058,0l-0,-5.7c-0,-1.883 0.274,-4.114 2.495,-4.114c0.481,0 0.893,0.124 1.259,0.471l0.938,-2.03c-0.503,-0.346 -1.098,-0.569 -1.694,-0.569c-1.373,0 -2.426,0.866 -2.93,2.227l-0.068,0l-0,-1.88Z" style="fill:#163964;fill-rule:nonzero;"/><path d="M363.427,137.08c-3.206,0 -5.722,2.674 -5.722,6.169c0,3.496 2.516,6.17 5.722,6.17c3.206,-0 5.721,-2.674 5.721,-6.17c-0,-3.495 -2.515,-6.169 -5.721,-6.169Zm-0,2.128c2.038,0 3.664,1.835 3.664,4.041c-0,2.182 -1.626,4.041 -3.664,4.041c-2.038,0 -3.664,-1.859 -3.664,-4.041c-0,-2.206 1.626,-4.041 3.664,-4.041Z" style="fill:#163964;fill-rule:nonzero;"/><path d="M376.336,127.514c-0.458,-0.198 -0.939,-0.297 -1.442,-0.297c-2.654,-0 -3.454,2.029 -3.454,4.558l-0,5.652l-0.939,0l0,2.079l0.939,-0l-0,9.516l2.057,0l0,-9.516l2.839,-0l-0,-2.079l-2.839,0l0,-4.983c0,-1.141 0,-3.149 1.465,-3.149c0.435,0 0.962,0.273 1.374,0.471l-0,-2.252Z" style="fill:#163964;fill-rule:nonzero;"/><path d="M379.221,146.547c-0.731,-0 -1.326,0.668 -1.326,1.436c0,0.792 0.595,1.436 1.326,1.436c0.732,-0 1.327,-0.644 1.327,-1.436c-0,-0.768 -0.595,-1.436 -1.327,-1.436Z" style="fill:#163964;fill-rule:nonzero;"/><path d="M390.599,149.022l3.5,0c5.45,0 9.751,-3.07 9.751,-9.44c0,-6.222 -4.393,-9.243 -9.682,-9.243l-3.569,0l0,18.683Zm2.149,-16.555l0.756,0c4.396,0 8.197,1.76 8.197,7.214c0,5.428 -3.801,7.213 -8.197,7.213l-0.756,-0l0,-14.427Z" style="fill:#163964;fill-rule:nonzero;"/><path d="M407.971,137.427l-2.058,0l0,11.595l2.058,0l-0,-5.7c-0,-1.883 0.274,-4.114 2.495,-4.114c0.48,0 0.893,0.124 1.259,0.471l0.938,-2.03c-0.503,-0.346 -1.098,-0.569 -1.694,-0.569c-1.373,0 -2.426,0.866 -2.93,2.227l-0.068,0l-0,-1.88Z" style="fill:#163964;fill-rule:nonzero;"/><path d="M415.709,146.547c-0.732,-0 -1.326,0.668 -1.326,1.436c-0,0.792 0.594,1.436 1.326,1.436c0.732,-0 1.326,-0.644 1.326,-1.436c0,-0.768 -0.594,-1.436 -1.326,-1.436Z" style="fill:#163964;fill-rule:nonzero;"/><path d="M429.419,138.442l0,-8.103l-2.149,0l0,18.683l2.149,0l0,-7.805l0.87,-0.892l6.501,8.697l2.907,0l-7.897,-10.283l7.76,-8.4l-2.816,0l-7.325,8.103Z" style="fill:#163964;fill-rule:nonzero;"/><path d="M445.399,147.439c-2.176,0 -3.39,-2.033 -3.39,-4.214c0,-2.157 1.26,-4.165 3.39,-4.165c2.221,-0 3.48,1.909 3.48,4.165c0,2.28 -1.236,4.214 -3.48,4.214Zm5.423,-10.012l-2.057,0l-0,1.93l-0.046,0c-0.847,-1.386 -2.13,-2.277 -3.71,-2.277c-3.114,0 -5.057,2.897 -5.057,6.07c-0,3.322 1.852,6.269 5.126,6.269c1.534,-0 2.817,-0.891 3.641,-2.203l0.046,-0l-0,1.806l2.057,0l0,-11.595Z" style="fill:#163964;fill-rule:nonzero;"/><path d="M455.858,139.506l2.015,-0l-0,-2.079l-2.015,0l0,-4.436l-2.057,0l-0,4.436l-1.122,0l0,2.079l1.122,-0l-0,9.516l2.057,0l0,-9.516Z" style="fill:#163964;fill-rule:nonzero;"/><path d="M458.997,127.514l0,21.508l2.057,0l0,-5.328c0,-2.107 0,-4.634 2.657,-4.634c2.107,-0 2.359,1.338 2.359,3.32l0,6.642l2.058,0l-0,-6.914c-0,-2.825 -0.778,-5.028 -3.798,-5.028c-1.306,0 -2.588,0.668 -3.23,1.905l-0.046,0l0,-11.471l-2.057,0Z" style="fill:#163964;fill-rule:nonzero;"/><path d="M473.164,137.427l-2.058,0l0,11.595l2.058,0l-0,-5.7c-0,-1.883 0.274,-4.114 2.495,-4.114c0.48,0 0.892,0.124 1.259,0.471l0.938,-2.03c-0.503,-0.346 -1.099,-0.569 -1.694,-0.569c-1.373,0 -2.426,0.866 -2.93,2.227l-0.068,0l-0,-1.88Z" style="fill:#163964;fill-rule:nonzero;"/><path d="M481.519,137.427l-2.058,0l0,11.595l2.058,0l-0,-11.595Zm-1.029,-6.865c-0.777,0 -1.418,0.694 -1.418,1.56c0,0.842 0.641,1.51 1.418,1.51c0.778,0 1.418,-0.668 1.418,-1.51c-0,-0.866 -0.64,-1.56 -1.418,-1.56Z" style="fill:#163964;fill-rule:nonzero;"/><path d="M486.875,137.427l-2.057,0l-0,11.595l2.057,0l0,-5.328c0,-2.107 0,-4.634 2.657,-4.634c2.107,-0 2.359,1.338 2.359,3.32l0,6.642l2.057,0l0,-6.914c0,-2.825 -0.777,-5.028 -3.798,-5.028c-1.305,0 -2.588,0.668 -3.229,1.905l-0.046,0l0,-1.558Z" style="fill:#163964;fill-rule:nonzero;"/><path d="M513.017,132.765c-0.937,-1.808 -2.516,-2.822 -4.44,-2.822c-2.611,-0 -5.08,1.806 -5.08,4.83c-0,2.603 1.783,3.817 3.752,4.734l1.191,0.546c1.488,0.669 2.977,1.536 2.977,3.544c-0,1.958 -1.328,3.644 -3.183,3.644c-1.855,-0 -3.366,-1.487 -3.343,-3.545l-2.173,0.496c0.367,2.999 2.539,5.227 5.332,5.227c3.092,-0 5.516,-2.426 5.516,-5.822c-0,-3.123 -1.829,-4.586 -4.279,-5.627l-1.237,-0.52c-1.076,-0.446 -2.404,-1.215 -2.404,-2.677c-0,-1.636 1.511,-2.652 2.885,-2.652c1.306,-0 2.13,0.595 2.772,1.76l1.714,-1.116Z" style="fill:#163964;fill-rule:nonzero;"/><path d="M523.569,137.847c-0.824,-0.519 -1.877,-0.767 -2.838,-0.767c-3.297,0 -5.857,2.649 -5.857,6.244c-0,3.47 2.583,6.095 5.742,6.095c1.076,-0 2.015,-0.223 2.953,-0.768l0,-2.848c-0.778,0.942 -1.74,1.537 -2.93,1.537c-2.175,-0 -3.708,-1.736 -3.708,-4.116c-0,-2.132 1.556,-4.065 3.571,-4.065c1.236,-0 2.243,0.545 3.067,1.562l0,-2.874Z" style="fill:#163964;fill-rule:nonzero;"/><path d="M525.792,127.514l0,21.508l2.058,0l-0,-5.328c-0,-2.107 -0,-4.634 2.657,-4.634c2.107,-0 2.359,1.338 2.359,3.32l-0,6.642l2.057,0l-0,-6.914c-0,-2.825 -0.777,-5.028 -3.798,-5.028c-1.306,0 -2.588,0.668 -3.229,1.905l-0.046,0l-0,-11.471l-2.058,0Z" style="fill:#163964;fill-rule:nonzero;"/><path d="M537.673,137.427l-0,6.666c-0,3.173 1.371,5.326 4.531,5.326c3.159,-0 4.531,-2.153 4.531,-5.326l-0,-6.666l-2.058,0l0,6.419c0,1.858 -0.435,3.494 -2.473,3.494c-2.039,-0 -2.474,-1.636 -2.474,-3.494l0,-6.419l-2.057,0Zm2.127,-5.601c-0.777,0 -1.395,0.669 -1.395,1.486c0,0.841 0.618,1.51 1.395,1.51c0.755,-0 1.372,-0.669 1.372,-1.51c0,-0.817 -0.617,-1.486 -1.372,-1.486Zm4.83,0c-0.777,0 -1.395,0.669 -1.395,1.486c0,0.841 0.618,1.51 1.395,1.51c0.755,-0 1.372,-0.669 1.372,-1.51c0,-0.817 -0.617,-1.486 -1.372,-1.486Z" style="fill:#163964;fill-rule:nonzero;"/><path d="M551.839,139.506l2.015,-0l-0,-2.079l-2.015,0l0,-4.436l-2.057,0l-0,4.436l-1.122,0l0,2.079l1.122,-0l-0,9.516l2.057,0l0,-9.516Z" style="fill:#163964;fill-rule:nonzero;"/><path d="M557.61,146.943l7.254,-9.516l-10.024,0l0,2.079l6.019,-0l-7.254,9.516l10.962,0l-0,-2.079l-6.957,0Z" style="fill:#163964;fill-rule:nonzero;"/><rect x="187.972" y="56.124" width="380.904" height="2.955"/></svg>